<svg width="22" height="22" viewBox="0 0 22 22" fill="none" xmlns="http://www.w3.org/2000/svg">
<g clip-path="url(#clip0_4436_13202)">
<path d="M11.3427 12.1033C13.0496 12.1033 14.4334 10.7195 14.4334 9.01259C14.4334 7.30569 13.0496 5.92188 11.3427 5.92188C9.63577 5.92188 8.25195 7.30569 8.25195 9.01259C8.25195 10.7197 9.63577 12.1033 11.3427 12.1033ZM11.3427 7.27878C12.2986 7.27878 13.0765 8.05666 13.0765 9.01259C13.0765 9.96853 12.2988 10.7464 11.3427 10.7464C10.3865 10.7464 9.60886 9.96853 9.60886 9.01259C9.60886 8.05666 10.3865 7.27878 11.3427 7.27878Z" fill="#070608"/>
<path d="M12.9391 13.1289H9.85188C8.30378 13.1289 6.99609 14.5046 6.99609 16.1562C6.99609 16.5309 7.29972 16.8249 7.67444 16.8249C8.04916 16.8249 8.35278 16.5136 8.35278 16.1389C8.35278 15.2545 9.06722 14.4414 9.85166 14.4414H12.9389C13.7343 14.4414 14.4588 15.2462 14.4588 16.1269C14.4588 16.5016 14.7624 16.8068 15.1371 16.8068C15.5118 16.8068 15.8154 16.5232 15.8154 16.1485C15.8159 14.5291 14.4714 13.1289 12.9391 13.1289Z" fill="#070608"/>
<path d="M11.4375 1.53418C6.12188 1.53418 1.8125 5.84356 1.8125 11.1592C1.8125 16.4748 6.12188 20.7842 11.4375 20.7842C16.7534 20.7842 21.0625 16.4748 21.0625 11.1592C21.0625 5.84356 16.7534 1.53418 11.4375 1.53418ZM11.4375 19.4273C6.87853 19.4273 3.16941 15.7182 3.16941 11.1592C3.16941 6.60021 6.87853 2.89109 11.4375 2.89109C15.9965 2.89109 19.7056 6.60021 19.7056 11.1592C19.7056 15.7182 15.9965 19.4273 11.4375 19.4273Z" fill="#070608"/>
</g>
<defs>
<clipPath id="clip0_4436_13202">
<rect width="21" height="21" fill="white" transform="translate(0.9375 0.660156)"/>
</clipPath>
</defs>
</svg>
