<svg width="27" height="27" viewBox="0 0 27 27" fill="none" xmlns="http://www.w3.org/2000/svg">
<path d="M13.3697 14.8019C15.7269 14.8019 17.6378 12.8909 17.6378 10.5338C17.6378 8.1766 15.7269 6.26562 13.3697 6.26562C11.0125 6.26562 9.10156 8.1766 9.10156 10.5338C9.10156 12.8912 11.0125 14.8019 13.3697 14.8019ZM13.3697 8.13945C14.6898 8.13945 15.764 9.21366 15.764 10.5338C15.764 11.8539 14.6901 12.9281 13.3697 12.9281C12.0493 12.9281 10.9754 11.8539 10.9754 10.5338C10.9754 9.21366 12.0493 8.13945 13.3697 8.13945Z" fill="white"/>
<path d="M15.5742 16.2188H11.3109C9.17304 16.2188 7.36719 18.1186 7.36719 20.3993C7.36719 20.9167 7.78648 21.3228 8.30395 21.3228C8.82142 21.3228 9.24071 20.8929 9.24071 20.3754C9.24071 19.1541 10.2273 18.0312 11.3106 18.0312H15.5739C16.6723 18.0312 17.6728 19.1426 17.6728 20.3588C17.6728 20.8763 18.0921 21.2977 18.6095 21.2977C19.127 21.2977 19.5463 20.9062 19.5463 20.3887C19.5469 18.1524 17.6903 16.2188 15.5742 16.2188Z" fill="white"/>
<path d="M13.5007 0.207031C6.16003 0.207031 0.208984 6.15807 0.208984 13.4987C0.208984 20.8393 6.16003 26.7904 13.5007 26.7904C20.8416 26.7904 26.7923 20.8393 26.7923 13.4987C26.7923 6.15807 20.8416 0.207031 13.5007 0.207031ZM13.5007 24.9165C7.20493 24.9165 2.08281 19.7944 2.08281 13.4987C2.08281 7.20298 7.20493 2.08085 13.5007 2.08085C19.7964 2.08085 24.9185 7.20298 24.9185 13.4987C24.9185 19.7944 19.7964 24.9165 13.5007 24.9165Z" fill="white"/>
</svg>
